<?xml version="1.0" encoding="UTF-8" standalone="no"?>
<svg
   xmlns:dc="http://purl.org/dc/elements/1.1/"
   xmlns:cc="http://creativecommons.org/ns#"
   xmlns:rdf="http://www.w3.org/1999/02/22-rdf-syntax-ns#"
   xmlns:svg="http://www.w3.org/2000/svg"
   xmlns="http://www.w3.org/2000/svg"
   xmlns:sodipodi="http://sodipodi.sourceforge.net/DTD/sodipodi-0.dtd"
   xmlns:inkscape="http://www.inkscape.org/namespaces/inkscape"
   width="37.364471mm"
   height="55.580322mm"
   viewBox="0 0 37.364472 55.580322"
   version="1.1"
   id="svg8"
   inkscape:version="1.0.2-2 (e86c870879, 2021-01-15)"
   sodipodi:docname="KG_logo.svg">
  <defs
     id="defs2" />
  <sodipodi:namedview
     id="base"
     pagecolor="#ffffff"
     bordercolor="#666666"
     borderopacity="1.0"
     inkscape:pageopacity="0.0"
     inkscape:pageshadow="2"
     inkscape:zoom="2"
     inkscape:cx="56.158698"
     inkscape:cy="110.48418"
     inkscape:document-units="mm"
     inkscape:current-layer="layer1"
     inkscape:document-rotation="0"
     showgrid="false"
     inkscape:snap-global="false"
     fit-margin-top="0"
     fit-margin-left="0"
     fit-margin-right="0"
     fit-margin-bottom="0"
     inkscape:window-width="1366"
     inkscape:window-height="705"
     inkscape:window-x="-8"
     inkscape:window-y="-8"
     inkscape:window-maximized="1" />
  <metadata
     id="metadata5">
    <rdf:RDF>
      <cc:Work
         rdf:about="">
        <dc:format>image/svg+xml</dc:format>
        <dc:type
           rdf:resource="http://purl.org/dc/dcmitype/StillImage" />
        <dc:title></dc:title>
      </cc:Work>
    </rdf:RDF>
  </metadata>
  <g
     inkscape:label="Layer 1"
     inkscape:groupmode="layer"
     id="layer1"
     transform="translate(-80.9077,-99.939015)">
    <path
       style="fill:#f16060;stroke-width:0.264583"
       d="m 97.4367,155.07975 c -8.00103,-3.86969 -14.06198,-10.42483 -15.75328,-17.03772 -0.74553,-2.91502 -0.78591,-21.4395 -0.0481,-22.0735 0.52524,-0.45134 16.70656,-4.45856 17.92553,-4.43916 1.1822,0.0188 17.57556,4.10068 17.94129,4.46729 0.5717,0.57309 0.42057,19.49802 -0.17627,22.07149 -2.17286,9.36908 -14.27994,19.7245 -19.88916,17.0116 z m 4.75126,-2.25645 c 6.1519,-3.18346 10.88418,-8.21196 12.72371,-13.52015 l 0.77937,-2.24896 0.0882,-9.53438 c 0.10638,-11.49274 1.24946,-9.8585 -8.57755,-12.26319 l -7.70492,-1.88542 -7.7732,1.87824 c -9.8971,2.39143 -8.76281,0.79943 -8.64686,12.136 l 0.0935,9.13958 0.73827,2.11667 c 1.94667,5.58128 7.77324,11.54521 14.19712,14.53181 1.84797,0.85917 1.72488,0.86973 4.08234,-0.3502 z m -9.10012,-11.38609 c -0.37288,-0.69674 -0.37288,-17.85888 0,-18.55562 0.30869,-0.57678 1.04854,-0.67102 1.52528,-0.19428 0.22556,0.22557 0.3175,1.83445 0.3175,5.55625 0,6.48982 -0.47644,6.48402 5.6882,0.0692 5.13739,-5.34587 5.63777,-5.78289 6.3211,-5.52068 1.21074,0.46461 0.81341,1.16719 -2.58804,4.57618 -4.03529,4.04427 -4.03374,3.2946 -0.017,8.21338 4.12184,5.04744 4.34989,5.47857 3.14297,5.94171 -0.7037,0.27003 -1.1492,-0.15056 -4.50266,-4.25085 -4.09238,-5.00379 -3.67537,-4.8362 -6.08288,-2.44475 l -1.96171,1.94861 v 2.26881 c 0,1.41185 -0.11992,2.38873 -0.3175,2.58631 -0.47674,0.47674 -1.21659,0.38251 -1.52528,-0.19427 z M 80.9077,112.98128 c 0,-1.4479 13.82675,-5.94697 18.31582,-5.95977 1.9758,-0.006 17.35599,3.99644 18.05856,4.69901 2.07344,2.07344 1.6765,2.05245 -9.00445,-0.47608 l -9.01028,-2.13303 -8.80695,2.13128 c -9.57469,2.31709 -9.5527,2.31308 -9.5527,1.73859 z m 10.66701,-7.0758 c -0.33119,-0.43626 -0.87742,-2.35331 -0.87742,-3.07938 0,-0.67916 0.48354,-0.71804 1.52149,-0.12234 0.97293,0.55839 1.51638,0.34954 2.22771,-0.85607 0.46209,-0.78318 0.67596,-0.92752 1.18543,-0.80006 0.34189,0.0855 0.91825,0.22873 1.2808,0.31822 0.51533,0.12719 0.82721,-0.0172 1.42907,-0.66146 0.95326,-1.020485 1.06124,-1.020485 1.95659,-9e-5 0.56952,0.64904 0.86302,0.78954 1.38184,0.66146 0.36229,-0.0894 0.94706,-0.23424 1.29948,-0.32179 0.52674,-0.13086 0.71733,-0.0111 1.07106,0.67293 0.60237,1.16485 1.51183,1.54067 2.36907,0.97899 1.41283,-0.92571 1.88003,-0.14169 1.17603,1.9735 -0.53165,1.5974 -0.54745,1.59945 -4.59546,0.59757 l -3.70415,-0.91679 -3.3073,0.8186 c -1.81901,0.45024 -3.49884,0.87594 -3.73296,0.94601 -0.23411,0.0701 -0.54069,-0.0241 -0.68128,-0.2093 z"
       id="path46" />
  </g>
</svg>
