<?xml version="1.0" encoding="UTF-8" standalone="no"?>
<svg
   xmlns:dc="http://purl.org/dc/elements/1.1/"
   xmlns:cc="http://creativecommons.org/ns#"
   xmlns:rdf="http://www.w3.org/1999/02/22-rdf-syntax-ns#"
   xmlns:svg="http://www.w3.org/2000/svg"
   xmlns="http://www.w3.org/2000/svg"
   xmlns:sodipodi="http://sodipodi.sourceforge.net/DTD/sodipodi-0.dtd"
   xmlns:inkscape="http://www.inkscape.org/namespaces/inkscape"
   width="17.197916mm"
   height="16.668751mm"
   viewBox="0 0 17.197916 16.668751"
   version="1.1"
   id="svg8"
   inkscape:version="1.0.2-2 (e86c870879, 2021-01-15)"
   sodipodi:docname="nodes-bk.svg">
  <defs
     id="defs2" />
  <sodipodi:namedview
     id="base"
     pagecolor="#ffffff"
     bordercolor="#666666"
     borderopacity="1.0"
     inkscape:pageopacity="0.0"
     inkscape:pageshadow="2"
     inkscape:zoom="3.959798"
     inkscape:cx="8.3041134"
     inkscape:cy="23.111472"
     inkscape:document-units="mm"
     inkscape:current-layer="layer1"
     inkscape:document-rotation="0"
     showgrid="false"
     fit-margin-top="0"
     fit-margin-left="0"
     fit-margin-right="0"
     fit-margin-bottom="0"
     inkscape:window-width="1267"
     inkscape:window-height="728"
     inkscape:window-x="83"
     inkscape:window-y="0"
     inkscape:window-maximized="0" />
  <metadata
     id="metadata5">
    <rdf:RDF>
      <cc:Work
         rdf:about="">
        <dc:format>image/svg+xml</dc:format>
        <dc:type
           rdf:resource="http://purl.org/dc/dcmitype/StillImage" />
        <dc:title></dc:title>
      </cc:Work>
    </rdf:RDF>
  </metadata>
  <g
     inkscape:label="Layer 1"
     inkscape:groupmode="layer"
     id="layer1"
     transform="translate(-125.20461,-164.02277)">
    <path
       id="path1679"
       style="color:#000000;font-style:normal;font-variant:normal;font-weight:normal;font-stretch:normal;font-size:medium;line-height:normal;font-family:sans-serif;font-variant-ligatures:normal;font-variant-position:normal;font-variant-caps:normal;font-variant-numeric:normal;font-variant-alternates:normal;font-variant-east-asian:normal;font-feature-settings:normal;font-variation-settings:normal;text-indent:0;text-align:start;text-decoration:none;text-decoration-line:none;text-decoration-style:solid;text-decoration-color:#000000;letter-spacing:normal;word-spacing:normal;text-transform:none;writing-mode:lr-tb;direction:ltr;text-orientation:mixed;dominant-baseline:auto;baseline-shift:baseline;text-anchor:start;white-space:normal;shape-padding:0;shape-margin:0;inline-size:0;clip-rule:nonzero;display:inline;overflow:visible;visibility:visible;opacity:1;isolation:auto;mix-blend-mode:normal;color-interpolation:sRGB;color-interpolation-filters:linearRGB;solid-color:#000000;solid-opacity:1;vector-effect:none;fill:#000000;fill-opacity:1;fill-rule:nonzero;stroke:none;stroke-width:1;stroke-linecap:butt;stroke-linejoin:round;stroke-miterlimit:4;stroke-dasharray:none;stroke-dashoffset:0;stroke-opacity:1;color-rendering:auto;image-rendering:auto;shape-rendering:auto;text-rendering:auto;enable-background:accumulate;stop-color:#000000;stop-opacity:1"
       d="m 129.4599,165.14858 c -0.69801,0 -1.264,0.566 -1.264,1.26401 0,0.69801 0.56599,1.264 1.264,1.264 0.18415,0 0.35794,-0.0413 0.51573,-0.11213 l 1.48829,1.83761 0.40979,-0.33383 -1.4733,-1.81849 c 0.19904,-0.22335 0.3235,-0.51446 0.3235,-0.83716 0,-0.69801 -0.566,-1.26401 -1.26401,-1.26401 z m 3.90416,10.34149 -0.0444,2.43034 c -0.65255,0.0934 -1.15497,0.65335 -1.15497,1.33171 0,0.74368 0.60302,1.34617 1.34669,1.34617 0.74367,0 1.34668,-0.60249 1.34668,-1.34617 0,-0.62691 -0.42921,-1.15226 -1.00924,-1.30225 l 0.0444,-2.44998 z m -3.10007,-2.19315 -2.56522,1.18598 c -0.24276,-0.384 -0.66863,-0.64079 -1.15652,-0.64079 -0.75672,0 -1.36994,0.61374 -1.36994,1.37046 0,0.75672 0.61322,1.36994 1.36994,1.36994 0.75672,0 1.37046,-0.61322 1.37046,-1.36994 0,-0.0863 -0.009,-0.17081 -0.0243,-0.2527 l 2.59106,-1.19838 z m 6.4366,-1.17926 c 0,1.63086 -1.32207,2.95293 -2.95294,2.95293 -1.63086,0 -2.95294,-1.32207 -2.95294,-2.95293 0,-1.63087 1.32208,-2.95294 2.95294,-2.95294 1.63087,0 2.95294,1.32207 2.95294,2.95294 z m 2.6693,-7.96126 c -0.76977,0 -1.39371,0.62394 -1.39371,1.39371 0,0.32998 0.11942,0.62942 0.31109,0.86816 l -2.26859,2.91559 0.41754,0.32401 2.25464,-2.89698 c 0.20168,0.11343 0.43117,0.18345 0.67903,0.18345 0.76977,0 1.39372,-0.62446 1.39372,-1.39423 0,-0.76977 -0.62395,-1.39371 -1.39372,-1.39371 z m 1.55908,7.60677 c -0.6414,0 -1.1797,0.43389 -1.34204,1.02371 l -2.23862,-0.35554 -0.0816,0.52349 2.27842,0.36173 c 0.0793,0.69452 0.66815,1.23455 1.38389,1.23455 0.76977,0 1.39423,-0.62446 1.39423,-1.39423 0,-0.76977 -0.62446,-1.39371 -1.39423,-1.39371 z"
       inkscape:export-xdpi="46.345039"
       inkscape:export-ydpi="46.345039" />
  </g>
</svg>
