<?xml version="1.0" encoding="UTF-8" standalone="no"?>
<svg
   xmlns:dc="http://purl.org/dc/elements/1.1/"
   xmlns:cc="http://creativecommons.org/ns#"
   xmlns:rdf="http://www.w3.org/1999/02/22-rdf-syntax-ns#"
   xmlns:svg="http://www.w3.org/2000/svg"
   xmlns="http://www.w3.org/2000/svg"
   xmlns:sodipodi="http://sodipodi.sourceforge.net/DTD/sodipodi-0.dtd"
   xmlns:inkscape="http://www.inkscape.org/namespaces/inkscape"
   width="7.1867661mm"
   height="6.6145844mm"
   viewBox="0 0 7.1867662 6.6145842"
   version="1.1"
   id="svg8"
   inkscape:version="1.0.2-2 (e86c870879, 2021-01-15)"
   sodipodi:docname="nodes-bp.svg">
  <defs
     id="defs2" />
  <sodipodi:namedview
     id="base"
     pagecolor="#ffffff"
     bordercolor="#666666"
     borderopacity="1.0"
     inkscape:pageopacity="0.0"
     inkscape:pageshadow="2"
     inkscape:zoom="5.6"
     inkscape:cx="52.230096"
     inkscape:cy="32.612977"
     inkscape:document-units="mm"
     inkscape:current-layer="layer1"
     inkscape:document-rotation="0"
     showgrid="false"
     fit-margin-top="0"
     fit-margin-left="0"
     fit-margin-right="0"
     fit-margin-bottom="0"
     inkscape:window-width="1267"
     inkscape:window-height="728"
     inkscape:window-x="78"
     inkscape:window-y="0"
     inkscape:window-maximized="0" />
  <metadata
     id="metadata5">
    <rdf:RDF>
      <cc:Work
         rdf:about="">
        <dc:format>image/svg+xml</dc:format>
        <dc:type
           rdf:resource="http://purl.org/dc/dcmitype/StillImage" />
        <dc:title></dc:title>
      </cc:Work>
    </rdf:RDF>
  </metadata>
  <g
     inkscape:label="Layer 1"
     inkscape:groupmode="layer"
     id="layer1"
     transform="translate(-117.93152,-158.59527)">
    <path
       style="fill:#d8dab6;fill-opacity:1;stroke:none;stroke-width:0.0163011"
       d="m 121.54903,161.14735 c -0.17962,0.0304 -0.35412,0.11256 -0.48733,0.23767 -0.0589,0.0553 -0.12363,0.20387 -0.21425,0.20366 -0.1539,-3.1e-4 -0.3604,-0.13482 -0.5047,-0.18817 -0.2836,-0.10485 -0.56374,-0.21983 -0.84765,-0.32333 -0.14616,-0.0533 -0.36093,-0.0984 -0.48531,-0.19073 -0.0755,-0.0561 -0.0427,-0.16577 -0.0747,-0.24442 -0.0739,-0.1816 -0.25801,-0.30999 -0.45068,-0.33551 -0.27859,-0.0369 -0.55102,0.26787 -0.55288,0.53111 -10e-4,0.18949 0.12024,0.36953 0.27575,0.46737 0.14653,0.0922 0.34134,0.0818 0.48903,0.002 0.0639,-0.0348 0.13639,-0.12656 0.21192,-0.12296 0.13826,0.007 0.3115,0.11231 0.44013,0.16255 0.31964,0.12483 0.64042,0.24766 0.96176,0.36811 0.10245,0.0384 0.40081,0.0982 0.4466,0.20281 0.0298,0.0681 0.006,0.16813 0.0105,0.24103 0.005,0.0965 0.0405,0.20401 0.076,0.29342 0.0207,0.0522 0.0677,0.12249 0.0392,0.1786 -0.084,0.16545 -0.3273,0.3082 -0.45853,0.4409 -0.087,0.088 -0.25291,0.30578 -0.37469,0.33369 -0.0767,0.0176 -0.18363,-0.0811 -0.26081,-0.0982 -0.2428,-0.0538 -0.47442,-0.0335 -0.68464,0.1171 -0.51189,0.36662 -0.40187,1.19857 0.1793,1.42694 0.46768,0.18378 1.00211,-0.13803 1.07246,-0.63857 0.0168,-0.11977 0.003,-0.24353 -0.0292,-0.35862 -0.0156,-0.0553 -0.0703,-0.13829 -0.0567,-0.19561 0.0152,-0.0635 0.0929,-0.10852 0.13818,-0.14948 0.0994,-0.0899 0.19538,-0.18447 0.29343,-0.27582 0.0982,-0.0915 0.1961,-0.18394 0.29342,-0.27628 0.0395,-0.0374 0.0856,-0.10093 0.1467,-0.095 0.14803,0.0143 0.27988,0.14255 0.44013,0.15806 0.11299,0.0109 0.34831,-0.0685 0.43841,-0.016 0.0987,0.0575 0.15133,0.2338 0.20808,0.32852 0.18265,0.30493 0.3683,0.61444 0.53389,0.92892 0.0607,0.11534 -0.0768,0.22166 -0.0867,0.34257 -0.0327,0.3984 0.24347,0.64895 0.63422,0.60012 0.3777,-0.0472 0.49244,-0.58232 0.27176,-0.8444 -0.0796,-0.0945 -0.1981,-0.16792 -0.32066,-0.18863 -0.0644,-0.0109 -0.16664,0.0212 -0.21517,-0.0293 -0.23342,-0.24326 -0.38802,-0.66292 -0.55554,-0.95595 -0.051,-0.0893 -0.18582,-0.25476 -0.18425,-0.35862 0.002,-0.093 0.14837,-0.20955 0.19232,-0.29342 0.0398,-0.0759 0.0591,-0.24607 0.13184,-0.29296 0.0589,-0.038 0.17234,-0.0168 0.23958,-0.0168 h 0.61943 c 0.0191,0.11294 0.0569,0.21258 0.11727,0.30972 0.43117,0.69444 1.51234,0.35224 1.51234,-0.45643 0,-0.9807 -1.46322,-1.12557 -1.62961,-0.14671 h -0.60313 c -0.0727,0 -0.19275,0.0225 -0.2571,-0.0168 -0.0765,-0.0467 -0.0979,-0.23083 -0.14644,-0.30927 -0.14676,-0.23731 -0.35901,-0.40871 -0.63973,-0.45642 v -0.86396 c 0,-0.11263 -0.0324,-0.28499 0.01,-0.39028 0.0341,-0.0851 0.19428,-0.13572 0.26428,-0.19437 0.1276,-0.10691 0.20157,-0.31081 0.20473,-0.47491 0.0135,-0.69862 -1.04254,-0.88731 -1.22989,-0.19562 -0.0701,0.25883 0.011,0.5158 0.20373,0.69482 0.0661,0.0614 0.20827,0.0874 0.24407,0.17215 0.0416,0.0985 0.01,0.26583 0.01,0.37191 z"
       id="path26"
       inkscape:export-xdpi="95.900002"
       inkscape:export-ydpi="95.900002" />
  </g>
</svg>
